<svg width="30" height="32" viewBox="0 0 30 32" fill="none" xmlns="http://www.w3.org/2000/svg">
<path d="M15.3553 0C11.0188 0 7.5354 3.48341 7.5354 7.8199C7.5354 12.1564 11.0188 15.6398 15.3553 15.6398C19.6918 15.6398 23.1752 12.1564 23.1752 7.8199C23.1752 3.48341 19.6918 0 15.3553 0ZM15.3553 12.9384C12.5117 12.9384 10.2368 10.6635 10.2368 7.8199C10.2368 4.9763 12.5117 2.70142 15.3553 2.70142C18.1989 2.70142 20.4738 4.9763 20.4738 7.8199C20.4738 10.6635 18.1989 12.9384 15.3553 12.9384Z" fill="#6F6F6F"/>
<path d="M15.2133 18.2701C15.1422 18.2701 15.0711 18.2701 15 18.2701C14.9289 18.2701 14.8578 18.2701 14.7867 18.2701C6.61138 18.2701 0 22.4645 0 27.5829C0 32.7014 0 28.0095 0 28.2938C0.14218 31.1374 3.5545 31.2796 3.5545 31.2796C3.5545 31.2796 9.17062 31.3507 14.8578 31.4218C14.8578 31.4218 14.9289 31.4218 15 31.4218C15 31.4218 15.0711 31.4218 15.1422 31.4218C20.8294 31.4218 26.4455 31.2796 26.4455 31.2796C26.4455 31.2796 29.8578 31.1374 30 28.2938C30 28.0806 30 27.8673 30 27.5829C30 22.4645 23.3886 18.2701 15.2133 18.2701ZM27.0142 27.7251C26.5877 28.7915 24.2417 28.5782 24.2417 28.5782C24.2417 28.5782 19.6209 28.5782 14.9289 28.5782C10.237 28.5782 5.61611 28.5782 5.61611 28.5782C5.61611 28.5782 3.27014 28.7915 2.8436 27.7251C2.63033 27.2275 3.05687 26.3033 3.12796 26.1611C4.83412 23.1043 8.10426 20.9005 14.9289 20.9716C21.7536 20.9716 25.0237 23.1754 26.7299 26.1611C26.7299 26.3033 27.2275 27.2275 27.0142 27.7251Z" fill="#6F6F6F"/>
</svg>
