<svg width="32" height="31" viewBox="0 0 32 31" fill="none" xmlns="http://www.w3.org/2000/svg">
<path d="M22.8958 3.29676C23.4858 2.70671 23.4858 1.75005 22.8958 1.16C22.3057 0.569944 21.3491 0.569945 20.759 1.16L2.44388 19.4751C1.85383 20.0652 1.85382 21.0218 2.44388 21.6119C3.03393 22.2019 3.99059 22.2019 4.58064 21.6119L22.8958 3.29676Z" fill="#6F6F6F"/>
<path d="M29.6722 9.31619C28.5929 10.3954 26.8662 10.3954 25.7869 9.31619L25.643 9.17229L26.6503 8.16501C27.154 7.66137 27.154 6.79799 26.6503 6.29435L24.276 3.92004C23.7724 3.4164 22.909 3.4164 22.4053 3.92004L21.3981 4.92732L21.1822 4.71148C20.103 3.63225 20.103 1.90548 21.1822 0.826252C22.2615 -0.252977 22.4053 0.0348185 23.1248 0.0348185C23.8443 0.0348185 24.5638 0.322612 25.0675 0.826252L29.7441 5.50291C30.8233 6.58214 30.8233 8.30891 29.7441 9.38814L29.6722 9.31619Z" fill="#6F6F6F"/>
<path d="M29.2993 9.6905C29.8894 9.10045 29.8894 8.14378 29.2993 7.55373C28.7093 6.96368 27.7526 6.96368 27.1626 7.55373L8.84745 25.8689C8.25739 26.4589 8.25739 27.4156 8.84744 28.0056C9.4375 28.5957 10.3942 28.5957 10.9842 28.0056L29.2993 9.6905Z" fill="#6F6F6F"/>
<path d="M11.0376 27.2314C11.0376 27.9509 10.5339 28.5265 9.88638 28.7423L2.83541 30.4691L1.90008 30.6849C0.820846 30.9727 -0.186433 29.9655 0.0294125 28.8862C0.17331 28.3106 0.605 27.879 1.18059 27.7351L3.5549 27.1595L9.16689 25.7924C9.95832 25.5766 10.8217 26.0802 10.9656 26.9436C10.9656 27.0875 10.9656 27.1595 10.9656 27.3034L11.0376 27.2314Z" fill="#6F6F6F"/>
<path d="M4.92175 20.756C4.92175 20.828 4.92175 20.9719 4.92175 21.0438L3.62667 27.0156L3.12303 29.3899C2.97914 29.9654 2.54744 30.3971 1.97186 30.541C0.892626 30.8288 -0.114656 29.8216 0.10119 28.7423L0.317038 27.807L1.89991 20.3963C2.0438 19.6048 2.90719 19.0293 3.69862 19.2451C4.41811 19.389 4.92175 20.0365 4.92175 20.756Z" fill="#6F6F6F"/>
<path d="M30.032 27.5911H19.3836C18.4696 27.5911 17.7288 28.332 17.7288 29.2459C17.7288 30.1599 18.4696 30.9008 19.3836 30.9008H30.032C30.9459 30.9008 31.6868 30.1599 31.6868 29.2459C31.6868 28.332 30.9459 27.5911 30.032 27.5911Z" fill="#6F6F6F"/>
</svg>
