<svg width="30" height="30" viewBox="0 0 30 30" fill="none" xmlns="http://www.w3.org/2000/svg">
<path d="M5.65987 24.24C4.43076 22.6505 4.0644 22.1316 3.78564 21.6226C3.7497 21.5567 3.7497 21.5567 3.72616 21.5135C3.64671 21.3697 3.5938 21.273 3.54249 21.1745C3.45948 21.0152 3.39041 20.8693 3.33171 20.7231C3.07156 20.0756 3.02223 19.5048 3.43682 18.9765C4.16565 18.0477 5.34746 18.3083 6.34394 19.1603C6.98579 19.7091 7.94252 20.6913 8.52586 21.3896C8.90898 21.8482 9.60633 22.3216 10.1152 22.4906C10.1685 22.5083 10.2188 22.5217 10.2668 22.5312L10.5327 21.6915C9.50022 21.328 8.56493 20.8456 7.72961 20.2437C5.78092 18.8395 4.08406 16.0849 4.22953 13.9828C4.32142 12.6548 4.77019 11.3541 5.56393 10.0886C5.49136 9.36335 5.45478 8.7454 5.45478 8.2316C5.45478 7.49863 5.6953 6.70147 6.15535 5.82734C6.32163 5.51141 6.64687 5.3095 7.00559 5.2995C7.8324 5.27647 8.63218 5.36153 9.40239 5.55533C10.0845 5.72697 10.8057 6.03003 11.5699 6.46145C12.713 6.22443 13.8209 6.1054 14.8932 6.1054C15.9686 6.1054 17.0883 6.22511 18.252 6.4634C19.2455 5.90646 20.1179 5.52829 20.8802 5.33093C21.8714 5.07431 22.7607 5.14966 23.4946 5.60396C23.5956 5.6665 23.6845 5.74662 23.7569 5.84047C24.2063 6.4228 24.4565 7.19556 24.538 8.1482C24.6002 8.87464 24.5774 9.59619 24.4697 10.3113C25.1197 11.2882 25.5415 12.5361 25.7498 14.0474C26.0895 16.5115 24.9631 19.0508 23.1734 20.5135C22.3392 21.1953 21.1929 21.7304 19.7327 22.135C19.825 22.458 19.8912 22.7807 19.9309 23.103C19.9964 23.6346 20.0427 25.0594 20.0741 27.4366C21.7268 26.5768 23.0106 25.7273 23.9226 24.8957C25.474 23.4811 26.6448 21.4733 27.4066 19.1428C28.0439 17.1936 28.1673 15.5481 27.8513 13.734C27.467 11.5278 26.912 9.73077 26.0753 8.28679C25.0974 6.59902 23.5375 5.00301 21.6721 3.83521C19.886 2.71707 16.9917 1.96858 14.7117 1.96858C12.3179 1.96858 9.63862 2.74408 7.60702 4.17729C5.62923 5.57254 3.99142 7.67131 3.04169 9.73231C2.28992 11.3637 1.98157 13.1019 1.98157 15.6687C1.98157 17.7477 2.7372 20.274 3.62845 21.855C4.33203 23.1031 5.33042 24.286 6.79893 25.5697C7.53898 26.2166 8.58511 26.8634 9.93463 27.5023V26.8684C8.12717 26.4483 6.68973 25.5717 5.65987 24.24ZM5.12427 19.8568C5.12408 19.8523 5.1238 19.8479 5.12343 19.8436L5.12425 19.8493L5.12427 19.8568ZM7.23127 23.0407C8.08766 24.1481 9.34825 24.8273 11.0704 25.0803C11.5563 25.1517 11.9162 25.566 11.9162 26.054V29.0146C11.9162 29.7158 11.1991 30.1921 10.5468 29.9241C8.33439 29.0152 6.65081 28.0624 5.48991 27.0476C3.86102 25.6237 2.71911 24.2707 1.89955 22.8169C0.852168 20.959 0 18.1099 0 15.6687C0 12.84 0.356602 10.8298 1.23994 8.9129C2.32673 6.55446 4.17847 4.18156 6.45972 2.57223C8.84183 0.891751 11.9227 0 14.7117 0C17.3493 0 20.6094 0.843121 22.7285 2.16972C24.864 3.5066 26.652 5.33593 27.7927 7.30472C28.7653 8.98333 29.3834 10.9845 29.8039 13.3984C30.1751 15.5299 30.0274 17.4992 29.2913 19.7509C28.4316 22.3807 27.0922 24.6777 25.2625 26.346C23.9403 27.5516 22.0288 28.7328 19.5226 29.9051C18.869 30.2108 18.1164 29.7412 18.1098 29.0235C18.0803 25.8006 18.0293 23.8723 17.964 23.3422C17.905 22.8631 17.7575 22.369 17.5178 21.8581C17.2491 21.285 17.5861 20.6123 18.2085 20.4799C19.9248 20.1148 21.1612 19.6089 21.9144 18.9933C23.1954 17.9464 24.0284 16.0686 23.7866 14.3144C23.5951 12.9257 23.2061 11.8754 22.6407 11.1529C22.4644 10.9278 22.3952 10.6377 22.4508 10.3579C22.585 9.6837 22.6225 9.00363 22.5636 8.31501C22.5216 7.82505 22.4247 7.45576 22.2888 7.20163C22.071 7.12943 21.7769 7.13312 21.3799 7.23589C20.7342 7.40307 19.9087 7.7748 18.9186 8.35389C18.7011 8.48107 18.443 8.52103 18.1969 8.46562C17.035 8.20401 15.9339 8.07398 14.8932 8.07398C13.8535 8.07398 12.7644 8.20377 11.6253 8.46479C11.3733 8.52254 11.1085 8.48008 10.8875 8.34647C10.1514 7.9014 9.49221 7.60868 8.91585 7.46365C8.51024 7.36159 8.09215 7.29865 7.66076 7.27503C7.50884 7.65148 7.43636 7.97175 7.43636 8.2316C7.43636 8.74551 7.48078 9.41121 7.57055 10.2238C7.59601 10.4542 7.53877 10.6862 7.40892 10.8789C6.67675 11.965 6.28092 13.0414 6.20643 14.1178C6.11456 15.4454 7.44669 17.6079 8.89307 18.6501C9.78518 19.2929 10.8294 19.7743 12.032 20.0932C12.5772 20.2378 12.8909 20.8049 12.7215 21.3397L11.9677 23.7196C11.8768 24.0065 11.6588 24.2365 11.3758 24.3437C10.7742 24.5718 10.132 24.5718 9.48704 24.3576C8.62845 24.0725 7.62034 23.3881 7.00099 22.6467C6.84938 22.4652 6.66623 22.259 6.46912 22.0462C6.6732 22.3162 6.9227 22.6416 7.23127 23.0407Z" fill="#2B2C2B"/>
</svg>
