<svg width="31" height="31" viewBox="0 0 31 31" fill="none" xmlns="http://www.w3.org/2000/svg">
<path d="M30.921 15.2561V24.99C30.921 27.7809 28.6072 30.0272 25.7325 30.0272H5.25868C2.38393 30.0272 0 27.7809 0 24.99V15.2561C0 13.2821 1.19196 11.5123 2.94486 10.6954C2.94486 10.7635 2.94486 10.8316 2.94486 10.8996V24.99C2.94486 26.2153 3.92648 27.1683 5.18856 27.1683H25.7325C26.9945 27.1683 27.9762 26.2153 27.9762 24.99V10.8996C27.9762 10.8316 27.9762 10.7635 27.9762 10.6954C29.7291 11.5123 30.921 13.214 30.921 15.2561Z" fill="#6F6F6F"/>
<path d="M16.1968 1.02956L17.1784 4.09268C17.1083 3.68427 15.9163 3.13971 15.3554 3.20778C14.7944 3.27585 13.4623 4.43303 13.322 4.36496L14.4439 1.02956C14.4439 0.55307 14.8646 0.144653 15.3554 0.144653C15.8462 0.144653 16.2669 0.55307 16.2669 1.02956H16.1968Z" fill="#6F6F6F"/>
<path d="M0.420772 11.4442L0.701236 11.8526C1.05181 12.3291 1.68285 12.3972 2.17366 12.0568L16.2669 2.2548C16.7577 1.91446 16.8278 1.30183 16.4773 0.825344L16.1968 0.416925C15.8462 -0.0595611 15.2152 -0.12763 14.7244 0.212717L0.631119 10.0147C0.140309 10.3551 0.0701934 10.9677 0.420772 11.4442Z" fill="#6F6F6F"/>
<path d="M29.8694 12.0568L30.7809 11.308C31.1315 10.8316 31.0614 10.2189 30.5706 9.87859L16.1969 0.212717C15.706 -0.12763 15.075 -0.0595611 14.7244 0.416925L14.444 0.825344C14.0934 1.30183 14.1635 1.91446 14.6543 2.2548L29.028 11.9207C29.5188 12.261 29.589 12.5333 29.9395 12.0568H29.8694Z" fill="#6F6F6F"/>
<path d="M30.9212 11.308C30.9212 10.5937 30.3248 10.0147 29.589 10.0147C28.8533 10.0147 28.2568 10.5937 28.2568 11.308V25.1942C28.2568 25.9085 28.8533 26.4875 29.589 26.4875C30.3248 26.4875 30.9212 25.9085 30.9212 25.1942V11.308Z" fill="#6F6F6F"/>
<path d="M2.6644 11.308C2.6644 10.5937 2.06795 10.0147 1.3322 10.0147C0.596444 10.0147 0 10.5937 0 11.308V25.1942C0 25.9085 0.596444 26.4875 1.3322 26.4875C2.06795 26.4875 2.6644 25.9085 2.6644 25.1942V11.308Z" fill="#6F6F6F"/>
<path d="M21.3155 21.7908V29.1423C20.6143 28.9381 19.843 28.8019 19.0718 28.8019H18.581V22.063C18.581 20.8378 17.5292 19.8167 16.2671 19.8167H14.7947C13.5326 19.8167 12.4809 20.8378 12.4809 22.063V28.8019H11.92C11.1487 28.8019 10.3774 28.9381 9.67627 29.1423V21.7908C9.67627 19.136 11.92 16.9578 14.6545 16.9578H16.3373C19.0718 16.9578 21.3155 19.136 21.3155 21.7908Z" fill="#6F6F6F"/>
</svg>
