<svg width="31" height="31" viewBox="0 0 31 31" fill="none" xmlns="http://www.w3.org/2000/svg">
<path d="M7.57728 9.64382C8.7186 9.64382 9.64382 8.7186 9.64382 7.57728C9.64382 6.43596 8.7186 5.51074 7.57728 5.51074C6.43596 5.51074 5.51074 6.43596 5.51074 7.57728C5.51074 8.7186 6.43596 9.64382 7.57728 9.64382Z" fill="#2B2C2B"/>
<path d="M5.51074 12.3992C5.51074 11.6383 6.12756 11.0215 6.88843 11.0215H8.26613C9.027 11.0215 9.64382 11.6383 9.64382 12.3992V23.4207C9.64382 24.1816 9.027 24.7984 8.26613 24.7984H6.88843C6.12756 24.7984 5.51074 24.1816 5.51074 23.4207V12.3992Z" fill="#2B2C2B"/>
<path d="M13.7771 24.7984H15.1548C15.9157 24.7984 16.5325 24.1816 16.5325 23.4207V17.2211C16.5325 15.1546 20.6656 13.7769 20.6656 16.5323V23.4213C20.6656 24.1822 21.2824 24.7984 22.0433 24.7984H23.421C24.1819 24.7984 24.7986 24.1816 24.7986 23.4207V15.1546C24.7986 12.3992 22.7321 11.0215 19.9767 11.0215C17.2213 11.0215 16.5325 13.088 16.5325 13.088V12.3992C16.5325 11.6383 15.9157 11.0215 15.1548 11.0215H13.7771C13.0162 11.0215 12.3994 11.6383 12.3994 12.3992V23.4207C12.3994 24.1816 13.0162 24.7984 13.7771 24.7984Z" fill="#2B2C2B"/>
<path fill-rule="evenodd" clip-rule="evenodd" d="M26.1762 0C28.4589 0 30.3092 1.85045 30.3092 4.13308V26.1762C30.3092 28.4589 28.4589 30.3092 26.1762 30.3092H4.13308C1.85045 30.3092 0 28.4589 0 26.1762V4.13308C0 1.85045 1.85045 0 4.13308 0H26.1762ZM26.1762 2.75538C26.9371 2.75538 27.5538 3.37221 27.5538 4.13308V26.1762C27.5538 26.9371 26.9371 27.5538 26.1762 27.5538H4.13308C3.37221 27.5538 2.75538 26.9371 2.75538 26.1762V4.13308C2.75538 3.37221 3.37221 2.75538 4.13308 2.75538H26.1762Z" fill="#2B2C2B"/>
</svg>
