<svg width="30" height="31" viewBox="0 0 30 31" fill="none" xmlns="http://www.w3.org/2000/svg">
<path d="M25.8108 0H4.18919C3.04054 0 1.95946 0.472972 1.21622 1.21622C0.472972 1.95946 0 3.04054 0 4.18919C0 6.48649 1.89189 8.37838 4.18919 8.37838H25.8108C26.9595 8.37838 28.0405 7.9054 28.7838 7.16216C29.527 6.41892 30 5.33784 30 4.18919C30 1.89189 28.1081 0 25.8108 0ZM27.1622 4.93243C27.1622 5.47297 26.7568 5.87838 26.2162 5.87838H4.05405C3.51351 5.87838 3.10811 5.47297 3.10811 4.93243V3.78378C3.10811 3.24324 3.51351 2.83784 4.05405 2.83784H26.2162C26.7568 2.83784 27.1622 3.24324 27.1622 3.78378V4.93243Z" fill="#2B2C2B"/>
<path d="M27.9054 10.4054V21.0811C27.9054 23.7838 25.6757 26.0135 22.973 26.0135H6.8919C4.1892 26.0135 1.95947 23.7838 1.95947 21.0811V10.4054C1.95947 5.33785 3.10812 6.75676 4.72974 5.94595L4.59461 20.6081C4.59461 22.027 5.74325 23.1757 7.16217 23.1757H22.6351C24.0541 23.1757 25.2027 22.027 25.2027 20.6081L25.3378 6.01352C26.8919 6.82433 27.9054 4.72974 27.9054 10.3378V10.4054Z" fill="#2B2C2B"/>
<path d="M16.4188 26.0811C16.4188 25.2602 15.7532 24.5946 14.9323 24.5946C14.1113 24.5946 13.4458 25.2602 13.4458 26.0811V28.8514C13.4458 29.6724 14.1113 30.3379 14.9323 30.3379C15.7532 30.3379 16.4188 29.6724 16.4188 28.8514V26.0811Z" fill="#2B2C2B"/>
</svg>
