<svg width="47" height="46" viewBox="0 0 47 46" fill="none" xmlns="http://www.w3.org/2000/svg">
<path fill-rule="evenodd" clip-rule="evenodd" d="M13.7338 29.8332C12.1079 28.2083 11.0051 26.1521 10.5623 23.9194C10.1157 21.6805 10.345 19.3629 11.2221 17.2494C12.0918 15.1478 13.5764 13.3446 15.4897 12.0661C19.3717 9.47128 24.4821 9.47128 28.3639 12.0661C30.2774 13.3446 31.762 15.1478 32.6315 17.2494C33.5087 19.3629 33.7381 21.6805 33.2914 23.9194C32.8486 26.1521 31.7458 28.2083 30.1198 29.8332C27.9667 31.9958 25.0122 33.2155 21.9268 33.2155C18.8415 33.2155 15.8871 31.9958 13.7338 29.8332Z" stroke="black" stroke-width="3.6" stroke-linecap="round" stroke-linejoin="round"/>
<path d="M21.94 14.1734C21.1656 14.2537 20.6044 14.9332 20.6864 15.6911C20.7686 16.449 21.4629 16.9983 22.2372 16.918L21.94 14.1734ZM25.4206 18.7535C25.7243 19.4554 26.5516 19.7835 27.2689 19.4864C27.9859 19.1892 28.3211 18.3794 28.0175 17.6776L25.4206 18.7535ZM31.2872 28.6799C30.7361 28.1415 29.8433 28.1423 29.2932 28.6818C28.743 29.2211 28.7439 30.0949 29.2949 30.6333L31.2872 28.6799ZM35.6644 36.8561C36.2156 37.3947 37.1082 37.394 37.6585 36.8545C38.2086 36.315 38.2078 35.4414 37.6566 34.9028L35.6644 36.8561ZM22.2372 16.918C23.5955 16.7772 24.8882 17.5224 25.4206 18.7535L28.0175 17.6776C27.001 15.3273 24.5333 13.9045 21.94 14.1734L22.2372 16.918ZM29.2949 30.6333L35.6644 36.8561L37.6566 34.9028L31.2872 28.6799L29.2949 30.6333Z" fill="black"/>
</svg>
