<svg width="66" height="30" viewBox="0 0 66 30" fill="none" xmlns="http://www.w3.org/2000/svg">
<path d="M65.6002 14.6433C65.5673 12.1821 64.9124 9.72311 63.6774 7.59154C62.5677 5.7039 61.0712 4.03601 59.2781 2.77685C56.6543 0.933158 53.4371 -0.0425275 50.2332 0.00142231C38.9733 0.00142231 27.7133 0.00142231 16.4534 0.00142231C15.4382 0.0124097 14.4207 -0.0381335 13.4099 0.0937157C11.5398 0.293687 9.71812 0.865034 8.04583 1.71986C5.41544 3.09988 3.23553 5.28858 1.79178 7.87722C0.824883 9.67476 0.238154 11.6745 0.0689475 13.7072C-0.223318 16.6342 0.429336 19.6228 1.78958 22.2202C3.41352 25.222 6.08567 27.6612 9.26983 28.9094C10.9509 29.5774 12.7528 29.9905 14.568 29.9927C26.4256 30.0037 38.2855 29.9839 50.1431 29.9993C50.9452 29.9993 51.7517 30.0147 52.5494 29.8982C54.7183 29.6104 56.8257 28.8632 58.6804 27.7008C61.48 25.9757 63.6225 23.253 64.7278 20.1634C65.3739 18.401 65.653 16.5133 65.6002 14.6389V14.6433ZM64.229 17.0451C63.8093 20.304 62.0909 23.3431 59.6187 25.4857C58.3617 26.5581 56.907 27.3909 55.3512 27.9491C54.0327 28.4062 52.6526 28.7314 51.2506 28.7336C38.8524 28.7138 26.452 28.7204 14.0538 28.7292C10.5905 28.5622 7.22177 26.9668 4.88145 24.4111C2.50157 21.8379 1.14352 18.3285 1.249 14.8191C1.27757 11.2745 2.77845 7.78273 5.29238 5.28638C6.81304 3.80308 8.65453 2.62742 10.6762 1.95719C11.7618 1.60779 12.8869 1.39023 14.023 1.29574C14.8602 1.25179 15.6975 1.27377 16.5347 1.27377C27.9111 1.27377 39.2875 1.27377 50.6639 1.26937C53.7096 1.25619 56.7268 2.35053 59.1264 4.21181C61.0273 5.69511 62.5172 7.69043 63.4269 9.92308C64.3433 12.1645 64.5828 14.6565 64.229 17.0451Z" fill="#2B2C2B"/>
<path d="M23.4241 8.53669C21.7562 6.38096 19.2686 4.84052 16.5503 4.47573C15.5461 4.29334 14.5198 4.35927 13.5112 4.46475C10.7182 4.84272 8.07461 6.348 6.4199 8.64437C5.50355 9.87497 4.88386 11.3143 4.53446 12.8042C4.1477 14.6545 4.2378 16.6125 4.82892 18.41C5.69253 21.1195 7.7296 23.4071 10.2809 24.6465C12.0213 25.5035 14.0034 25.8375 15.9284 25.6749C18.5786 25.4508 21.1079 24.1696 22.8879 22.2007C24.0372 20.9613 24.837 19.423 25.2831 17.7991C25.7116 16.0719 25.7534 14.2392 25.3205 12.5076C24.9667 11.0726 24.2921 9.72554 23.4197 8.53889L23.4241 8.53669Z" fill="#2B2C2B"/>
<path d="M49.372 9.49277C49.7192 9.56529 50.0708 9.27742 50.0708 8.92142C50.0796 8.03584 50.073 7.15025 50.0752 6.26246C50.0884 5.8779 49.6687 5.53729 49.2973 5.67134C49.0578 5.74386 48.8776 5.97459 48.8995 6.2317C48.8842 7.15684 48.9039 8.08418 48.8886 9.00932C48.882 9.26863 49.1193 9.47959 49.3698 9.49058L49.372 9.49277Z" fill="#2B2C2B"/>
<path d="M44.5308 11.0244C44.689 11.1804 44.8539 11.3848 45.1022 11.3826C45.5483 11.4265 45.9284 10.82 45.6142 10.4684C45.0626 9.84653 44.4385 9.29716 43.8826 8.68186C43.6101 8.40278 43.2848 8.00723 42.8453 8.2072C42.5355 8.35663 42.3751 8.80932 42.6278 9.08181C43.2453 9.74545 43.9001 10.3739 44.533 11.0266L44.5308 11.0244Z" fill="#2B2C2B"/>
<path d="M54.1779 11.2502C54.8129 10.6261 55.4128 9.96902 56.0457 9.34273C56.2061 9.17353 56.4413 9.00652 56.4193 8.74502C56.4281 8.32749 55.9512 8.00886 55.5711 8.19785C54.8613 8.7582 54.2745 9.4592 53.6373 10.0965C53.4549 10.2964 53.2 10.4942 53.1978 10.7909C53.1934 11.2567 53.8219 11.5578 54.1779 11.2502Z" fill="#2B2C2B"/>
<path d="M54.3668 14.3796C54.1822 12.9974 53.3603 11.7382 52.233 10.9361C51.2398 10.2307 49.974 9.96263 48.772 10.1186C47.0316 10.3318 45.4977 11.5844 44.8692 13.2105C44.355 14.4697 44.4034 15.942 44.9659 17.177C45.5219 18.3416 46.5305 19.291 47.7523 19.7195C48.8247 20.1194 50.0399 20.1392 51.1167 19.7393C52.5253 19.2426 53.668 18.0648 54.1426 16.6496C54.3975 15.9244 54.4525 15.1399 54.3646 14.3796H54.3668ZM52.4725 17.2495C51.9671 17.889 51.2859 18.4164 50.4926 18.6405C49.4576 18.9569 48.2819 18.7899 47.3898 18.1702C46.3064 17.478 45.6735 16.1771 45.7263 14.9004C45.7658 13.283 46.9722 11.7404 48.561 11.3822C49.3961 11.1844 50.3014 11.2877 51.0683 11.6745C52.1144 12.1799 52.8879 13.1929 53.1274 14.3246C53.3427 15.3355 53.0878 16.4276 52.4703 17.2495H52.4725Z" fill="#2B2C2B"/>
<path d="M43.9309 15.0694C43.9177 14.7156 43.5573 14.4563 43.2167 14.4915C42.2015 14.5134 41.1862 14.4739 40.1732 14.5113C39.9468 14.597 39.7249 14.8079 39.7469 15.0672C39.7271 15.4188 40.0633 15.6935 40.4017 15.6825C41.3422 15.7001 42.2806 15.6869 43.2211 15.6869C43.5683 15.7133 43.9485 15.4364 43.9331 15.0694H43.9309Z" fill="#2B2C2B"/>
<path d="M58.0121 14.4832C57.1397 14.5074 56.2607 14.4568 55.3927 14.5337C55.0675 14.615 54.8983 15.0084 55.0257 15.3094C55.1224 15.538 55.3641 15.6874 55.6125 15.6786C56.4959 15.7006 57.3836 15.683 58.2692 15.694C58.5109 15.6896 58.7944 15.7182 58.9812 15.5292C59.2273 15.316 59.2581 14.8919 59.0098 14.6678C58.7439 14.4085 58.3461 14.4964 58.0121 14.4832Z" fill="#2B2C2B"/>
<path d="M44.9327 18.7525C44.7591 18.8206 44.6294 18.9634 44.4976 19.0887C44.0053 19.5678 43.5394 20.071 43.0516 20.5544C42.8582 20.7676 42.6187 20.9566 42.5 21.2247C42.4099 21.5697 42.6868 21.974 43.0604 21.9564C43.2955 21.974 43.4933 21.818 43.6493 21.6598C44.3108 20.9785 44.9986 20.3215 45.6161 19.5985C45.893 19.17 45.4161 18.5679 44.9349 18.7525H44.9327Z" fill="#2B2C2B"/>
<path d="M54.1228 18.8651C53.9844 18.7179 53.7559 18.6651 53.5713 18.7552C53.2482 18.8827 53.0109 19.3463 53.2878 19.6298C53.9646 20.377 54.6876 21.0824 55.4128 21.7856C55.7204 22.124 56.3665 21.9504 56.4258 21.4845C56.5159 21.1856 56.2676 20.9571 56.0786 20.7659C55.4238 20.1352 54.7909 19.4826 54.1228 18.8673V18.8651Z" fill="#2B2C2B"/>
<path d="M49.2417 20.6861C49.022 20.7696 48.8703 20.9916 48.8835 21.2267C48.8835 22.0837 48.8835 22.9407 48.8835 23.7977C48.8594 24.0197 48.9341 24.2658 49.1362 24.3823C49.4483 24.6174 49.9779 24.4306 50.0372 24.0395C50.0768 23.2725 50.0174 22.5056 50.068 21.7409C50.068 21.4794 50.1009 21.2069 49.9977 20.9608C49.8702 20.6883 49.5076 20.5872 49.2395 20.6883L49.2417 20.6861Z" fill="#2B2C2B"/>
</svg>
